<mxfile host="app.diagrams.net" modified="2020-04-21T06:53:54.063Z" agent="5.0 (Macintosh; Intel Mac OS X 10_15_4) AppleWebKit/605.1.15 (KHTML, like Gecko) Version/13.1 Safari/605.1.15" etag="JKxn-nfwauPnW0MdBA4i" version="12.9.14" type="github">
  <diagram id="eWKPzlRxmeS1DMQ8soBv" name="Page-1">
    <mxGraphModel dx="1149" dy="756" grid="1" gridSize="10" guides="1" tooltips="1" connect="1" arrows="1" fold="1" page="1" pageScale="1" pageWidth="850" pageHeight="1100" math="0" shadow="0">
      <root>
        <mxCell id="0" />
        <mxCell id="1" parent="0" />
        <mxCell id="s14O3IaWlBPpgxt5JCRT-6" value="" style="edgeStyle=orthogonalEdgeStyle;rounded=0;orthogonalLoop=1;jettySize=auto;html=1;fillColor=#d5e8d4;strokeColor=#82b366;" parent="1" source="s14O3IaWlBPpgxt5JCRT-2" target="s14O3IaWlBPpgxt5JCRT-5" edge="1">
          <mxGeometry relative="1" as="geometry" />
        </mxCell>
        <mxCell id="s14O3IaWlBPpgxt5JCRT-2" value="mgm-sw1" style="rounded=0;whiteSpace=wrap;html=1;fillColor=#d5e8d4;strokeColor=#82b366;" parent="1" vertex="1">
          <mxGeometry x="107" y="226" width="120" height="60" as="geometry" />
        </mxCell>
        <mxCell id="s14O3IaWlBPpgxt5JCRT-8" value="" style="edgeStyle=orthogonalEdgeStyle;rounded=0;orthogonalLoop=1;jettySize=auto;html=1;fillColor=#d5e8d4;strokeColor=#82b366;" parent="1" source="s14O3IaWlBPpgxt5JCRT-5" target="s14O3IaWlBPpgxt5JCRT-7" edge="1">
          <mxGeometry relative="1" as="geometry" />
        </mxCell>
        <mxCell id="s14O3IaWlBPpgxt5JCRT-5" value="mgm-sw2" style="rounded=0;whiteSpace=wrap;html=1;fillColor=#d5e8d4;strokeColor=#82b366;" parent="1" vertex="1">
          <mxGeometry x="307" y="226" width="120" height="60" as="geometry" />
        </mxCell>
        <mxCell id="s14O3IaWlBPpgxt5JCRT-10" value="" style="edgeStyle=orthogonalEdgeStyle;rounded=0;orthogonalLoop=1;jettySize=auto;html=1;fillColor=#d5e8d4;strokeColor=#82b366;" parent="1" source="s14O3IaWlBPpgxt5JCRT-7" target="s14O3IaWlBPpgxt5JCRT-9" edge="1">
          <mxGeometry relative="1" as="geometry" />
        </mxCell>
        <mxCell id="s14O3IaWlBPpgxt5JCRT-7" value="mgm-sw3" style="rounded=0;whiteSpace=wrap;html=1;fillColor=#d5e8d4;strokeColor=#82b366;" parent="1" vertex="1">
          <mxGeometry x="507" y="226" width="120" height="60" as="geometry" />
        </mxCell>
        <mxCell id="s14O3IaWlBPpgxt5JCRT-11" style="edgeStyle=orthogonalEdgeStyle;rounded=0;orthogonalLoop=1;jettySize=auto;html=1;exitX=0.5;exitY=0;exitDx=0;exitDy=0;entryX=0;entryY=0.5;entryDx=0;entryDy=0;" parent="1" source="s14O3IaWlBPpgxt5JCRT-9" target="s14O3IaWlBPpgxt5JCRT-2" edge="1">
          <mxGeometry relative="1" as="geometry" />
        </mxCell>
        <mxCell id="s14O3IaWlBPpgxt5JCRT-9" value="mgm-sw4" style="rounded=0;whiteSpace=wrap;html=1;fillColor=#d5e8d4;strokeColor=#82b366;" parent="1" vertex="1">
          <mxGeometry x="707" y="226" width="120" height="60" as="geometry" />
        </mxCell>
        <mxCell id="s14O3IaWlBPpgxt5JCRT-13" value="pp1-1" style="rounded=0;whiteSpace=wrap;html=1;fillColor=#d5e8d4;strokeColor=#82b366;" parent="1" vertex="1">
          <mxGeometry x="107" y="310" width="120" height="20" as="geometry" />
        </mxCell>
        <mxCell id="5zSd3U6oNC0DC5aT2nWI-3" style="edgeStyle=orthogonalEdgeStyle;rounded=0;orthogonalLoop=1;jettySize=auto;html=1;exitX=1;exitY=0.25;exitDx=0;exitDy=0;entryX=0;entryY=0.5;entryDx=0;entryDy=0;" edge="1" parent="1" source="s14O3IaWlBPpgxt5JCRT-14" target="s14O3IaWlBPpgxt5JCRT-20">
          <mxGeometry relative="1" as="geometry">
            <Array as="points">
              <mxPoint x="227" y="380" />
              <mxPoint x="467" y="380" />
              <mxPoint x="467" y="440" />
            </Array>
          </mxGeometry>
        </mxCell>
        <mxCell id="s14O3IaWlBPpgxt5JCRT-14" value="pp1-2" style="rounded=0;whiteSpace=wrap;html=1;fillColor=#d5e8d4;strokeColor=#82b366;" parent="1" vertex="1">
          <mxGeometry x="107" y="350" width="120" height="20" as="geometry" />
        </mxCell>
        <mxCell id="s14O3IaWlBPpgxt5JCRT-15" value="pp2-1" style="rounded=0;whiteSpace=wrap;html=1;fillColor=#d5e8d4;strokeColor=#82b366;" parent="1" vertex="1">
          <mxGeometry x="305" y="310" width="120" height="20" as="geometry" />
        </mxCell>
        <mxCell id="s14O3IaWlBPpgxt5JCRT-16" value="pp2-2" style="rounded=0;whiteSpace=wrap;html=1;fillColor=#d5e8d4;strokeColor=#82b366;" parent="1" vertex="1">
          <mxGeometry x="305" y="350" width="120" height="20" as="geometry" />
        </mxCell>
        <mxCell id="s14O3IaWlBPpgxt5JCRT-17" value="pp3-1" style="rounded=0;whiteSpace=wrap;html=1;fillColor=#d5e8d4;strokeColor=#82b366;" parent="1" vertex="1">
          <mxGeometry x="507" y="310" width="120" height="20" as="geometry" />
        </mxCell>
        <mxCell id="s14O3IaWlBPpgxt5JCRT-18" value="pp3-2" style="rounded=0;whiteSpace=wrap;html=1;fillColor=#d5e8d4;strokeColor=#82b366;" parent="1" vertex="1">
          <mxGeometry x="507" y="350" width="120" height="20" as="geometry" />
        </mxCell>
        <mxCell id="s14O3IaWlBPpgxt5JCRT-29" style="edgeStyle=orthogonalEdgeStyle;rounded=0;orthogonalLoop=1;jettySize=auto;html=1;exitX=1;exitY=0.25;exitDx=0;exitDy=0;entryX=1;entryY=0.5;entryDx=0;entryDy=0;fillColor=#d5e8d4;strokeColor=#82b366;" parent="1" source="s14O3IaWlBPpgxt5JCRT-20" target="s14O3IaWlBPpgxt5JCRT-23" edge="1">
          <mxGeometry relative="1" as="geometry" />
        </mxCell>
        <mxCell id="s14O3IaWlBPpgxt5JCRT-19" value="pp1-1a" style="rounded=0;whiteSpace=wrap;html=1;fillColor=#d5e8d4;strokeColor=#82b366;" parent="1" vertex="1">
          <mxGeometry x="707" y="390" width="120" height="20" as="geometry" />
        </mxCell>
        <mxCell id="s14O3IaWlBPpgxt5JCRT-20" value="pp1-2a" style="rounded=0;whiteSpace=wrap;html=1;fillColor=#d5e8d4;strokeColor=#82b366;" parent="1" vertex="1">
          <mxGeometry x="707" y="430" width="120" height="20" as="geometry" />
        </mxCell>
        <mxCell id="s14O3IaWlBPpgxt5JCRT-21" value="pp..a" style="rounded=0;whiteSpace=wrap;html=1;fillColor=#d5e8d4;strokeColor=#82b366;" parent="1" vertex="1">
          <mxGeometry x="707" y="310" width="120" height="20" as="geometry" />
        </mxCell>
        <mxCell id="s14O3IaWlBPpgxt5JCRT-22" value="pp..a" style="rounded=0;whiteSpace=wrap;html=1;fillColor=#d5e8d4;strokeColor=#82b366;" parent="1" vertex="1">
          <mxGeometry x="707" y="350" width="120" height="20" as="geometry" />
        </mxCell>
        <mxCell id="s14O3IaWlBPpgxt5JCRT-30" style="edgeStyle=orthogonalEdgeStyle;rounded=0;orthogonalLoop=1;jettySize=auto;html=1;exitX=0;exitY=0.25;exitDx=0;exitDy=0;entryX=0;entryY=0.75;entryDx=0;entryDy=0;strokeColor=#CCCCCC;" parent="1" source="s14O3IaWlBPpgxt5JCRT-23" target="s14O3IaWlBPpgxt5JCRT-9" edge="1">
          <mxGeometry relative="1" as="geometry" />
        </mxCell>
        <mxCell id="s14O3IaWlBPpgxt5JCRT-23" value="cum1 (sto)" style="rounded=0;whiteSpace=wrap;html=1;fillColor=#d5e8d4;strokeColor=#82b366;" parent="1" vertex="1">
          <mxGeometry x="707" y="470" width="120" height="60" as="geometry" />
        </mxCell>
        <mxCell id="s14O3IaWlBPpgxt5JCRT-24" value="cum2 (stb)" style="rounded=0;whiteSpace=wrap;html=1;fillColor=#d5e8d4;strokeColor=#82b366;" parent="1" vertex="1">
          <mxGeometry x="707" y="540" width="120" height="60" as="geometry" />
        </mxCell>
        <mxCell id="s14O3IaWlBPpgxt5JCRT-25" value="cum3 (spare)" style="rounded=0;whiteSpace=wrap;html=1;fillColor=#d5e8d4;strokeColor=#82b366;" parent="1" vertex="1">
          <mxGeometry x="707" y="610" width="120" height="60" as="geometry" />
        </mxCell>
        <mxCell id="s14O3IaWlBPpgxt5JCRT-28" style="edgeStyle=orthogonalEdgeStyle;rounded=0;orthogonalLoop=1;jettySize=auto;html=1;exitX=0.25;exitY=0;exitDx=0;exitDy=0;entryX=0.25;entryY=1;entryDx=0;entryDy=0;" parent="1" source="s14O3IaWlBPpgxt5JCRT-27" target="s14O3IaWlBPpgxt5JCRT-14" edge="1">
          <mxGeometry relative="1" as="geometry" />
        </mxCell>
        <mxCell id="5zSd3U6oNC0DC5aT2nWI-2" style="edgeStyle=orthogonalEdgeStyle;rounded=0;orthogonalLoop=1;jettySize=auto;html=1;exitX=0;exitY=0.5;exitDx=0;exitDy=0;entryX=0;entryY=0.75;entryDx=0;entryDy=0;" edge="1" parent="1" source="s14O3IaWlBPpgxt5JCRT-27" target="s14O3IaWlBPpgxt5JCRT-2">
          <mxGeometry relative="1" as="geometry" />
        </mxCell>
        <mxCell id="s14O3IaWlBPpgxt5JCRT-27" value="cartman06" style="rounded=0;whiteSpace=wrap;html=1;" parent="1" vertex="1">
          <mxGeometry x="107" y="440" width="120" height="60" as="geometry" />
        </mxCell>
        <mxCell id="s14O3IaWlBPpgxt5JCRT-31" value="fscom (fe)" style="rounded=0;whiteSpace=wrap;html=1;fillColor=#d5e8d4;strokeColor=#82b366;" parent="1" vertex="1">
          <mxGeometry x="707" y="690" width="120" height="60" as="geometry" />
        </mxCell>
        <mxCell id="s14O3IaWlBPpgxt5JCRT-32" value="fscom (srv)" style="rounded=0;whiteSpace=wrap;html=1;fillColor=#d5e8d4;strokeColor=#82b366;" parent="1" vertex="1">
          <mxGeometry x="707" y="760" width="120" height="60" as="geometry" />
        </mxCell>
        <mxCell id="s14O3IaWlBPpgxt5JCRT-33" value="fscom (spare)" style="rounded=0;whiteSpace=wrap;html=1;fillColor=#d5e8d4;strokeColor=#82b366;" parent="1" vertex="1">
          <mxGeometry x="707" y="830" width="120" height="60" as="geometry" />
        </mxCell>
        <mxCell id="s14O3IaWlBPpgxt5JCRT-37" style="edgeStyle=orthogonalEdgeStyle;rounded=0;orthogonalLoop=1;jettySize=auto;html=1;exitX=1;exitY=0.5;exitDx=0;exitDy=0;strokeColor=#D6B656;fillColor=#fff2cc;" parent="1" source="s14O3IaWlBPpgxt5JCRT-35" target="s14O3IaWlBPpgxt5JCRT-36" edge="1">
          <mxGeometry relative="1" as="geometry" />
        </mxCell>
        <mxCell id="s14O3IaWlBPpgxt5JCRT-40" style="edgeStyle=orthogonalEdgeStyle;rounded=0;orthogonalLoop=1;jettySize=auto;html=1;exitX=1;exitY=0.25;exitDx=0;exitDy=0;entryX=1;entryY=0.5;entryDx=0;entryDy=0;strokeColor=#b85450;fillColor=#f8cecc;" parent="1" source="s14O3IaWlBPpgxt5JCRT-35" target="s14O3IaWlBPpgxt5JCRT-32" edge="1">
          <mxGeometry relative="1" as="geometry" />
        </mxCell>
        <mxCell id="s14O3IaWlBPpgxt5JCRT-44" style="edgeStyle=orthogonalEdgeStyle;rounded=0;orthogonalLoop=1;jettySize=auto;html=1;exitX=0;exitY=0.75;exitDx=0;exitDy=0;entryX=0;entryY=0.75;entryDx=0;entryDy=0;strokeColor=#D6B656;" parent="1" source="s14O3IaWlBPpgxt5JCRT-35" target="s14O3IaWlBPpgxt5JCRT-31" edge="1">
          <mxGeometry relative="1" as="geometry" />
        </mxCell>
        <mxCell id="s14O3IaWlBPpgxt5JCRT-35" value="router1" style="rounded=0;whiteSpace=wrap;html=1;" parent="1" vertex="1">
          <mxGeometry x="707" y="910" width="120" height="60" as="geometry" />
        </mxCell>
        <mxCell id="s14O3IaWlBPpgxt5JCRT-36" value="" style="ellipse;shape=cloud;whiteSpace=wrap;html=1;" parent="1" vertex="1">
          <mxGeometry x="950" y="830" width="120" height="80" as="geometry" />
        </mxCell>
        <mxCell id="s14O3IaWlBPpgxt5JCRT-39" style="edgeStyle=orthogonalEdgeStyle;rounded=0;orthogonalLoop=1;jettySize=auto;html=1;exitX=1;exitY=0.5;exitDx=0;exitDy=0;entryX=0.55;entryY=0.95;entryDx=0;entryDy=0;entryPerimeter=0;strokeColor=#D6B656;" parent="1" source="s14O3IaWlBPpgxt5JCRT-38" target="s14O3IaWlBPpgxt5JCRT-36" edge="1">
          <mxGeometry relative="1" as="geometry" />
        </mxCell>
        <mxCell id="s14O3IaWlBPpgxt5JCRT-41" style="edgeStyle=orthogonalEdgeStyle;rounded=0;orthogonalLoop=1;jettySize=auto;html=1;exitX=1;exitY=0.25;exitDx=0;exitDy=0;entryX=1;entryY=0.25;entryDx=0;entryDy=0;strokeColor=#b85450;fillColor=#f8cecc;" parent="1" source="s14O3IaWlBPpgxt5JCRT-38" target="s14O3IaWlBPpgxt5JCRT-32" edge="1">
          <mxGeometry relative="1" as="geometry" />
        </mxCell>
        <mxCell id="s14O3IaWlBPpgxt5JCRT-42" style="edgeStyle=orthogonalEdgeStyle;rounded=0;orthogonalLoop=1;jettySize=auto;html=1;exitX=1;exitY=0.75;exitDx=0;exitDy=0;entryX=0;entryY=0.75;entryDx=0;entryDy=0;strokeColor=#D6B656;" parent="1" source="s14O3IaWlBPpgxt5JCRT-38" target="s14O3IaWlBPpgxt5JCRT-31" edge="1">
          <mxGeometry relative="1" as="geometry">
            <Array as="points">
              <mxPoint x="687" y="1035" />
              <mxPoint x="687" y="735" />
            </Array>
          </mxGeometry>
        </mxCell>
        <mxCell id="s14O3IaWlBPpgxt5JCRT-38" value="router2" style="rounded=0;whiteSpace=wrap;html=1;" parent="1" vertex="1">
          <mxGeometry x="707" y="990" width="120" height="60" as="geometry" />
        </mxCell>
      </root>
    </mxGraphModel>
  </diagram>
</mxfile>
